<svg width="64" height="64" viewBox="0 0 64 64" fill="none" xmlns="http://www.w3.org/2000/svg">
<rect width="64" height="64" rx="8" fill="#F4F4F4"/>
<path d="M41.125 15H38.8807V7.72727H41.2244C41.9299 7.72727 42.5336 7.87287 43.0355 8.16406C43.5374 8.45289 43.9221 8.86837 44.1896 9.41051C44.4571 9.95028 44.5909 10.5966 44.5909 11.3494C44.5909 12.107 44.456 12.7592 44.1861 13.3061C43.9162 13.8506 43.5232 14.2696 43.0071 14.5632C42.491 14.8544 41.8636 15 41.125 15ZM39.7614 14.2188H41.0682C41.6695 14.2188 42.1679 14.1027 42.5632 13.8707C42.9586 13.6387 43.2533 13.3085 43.4474 12.88C43.6416 12.4515 43.7386 11.9413 43.7386 11.3494C43.7386 10.7623 43.6428 10.2569 43.451 9.8331C43.2592 9.40696 42.9728 9.08026 42.5916 8.85298C42.2105 8.62334 41.7358 8.50852 41.1676 8.50852H39.7614V14.2188ZM46.0682 15V7.72727H50.4574V8.50852H46.9489V10.9659H50.2301V11.7472H46.9489V14.2188H50.5142V15H46.0682ZM52.343 7.72727L54.5021 13.8494H54.5874L56.7464 7.72727H57.6697L54.9993 15H54.0902L51.4197 7.72727H52.343Z" fill="#777777"/>
<path d="M34.656 48.248C35.584 51.832 37.696 54.28 41.44 55.192C41.152 55.464 40.8 55.976 40.608 56.312C36.72 55.208 34.592 52.568 33.488 48.504L34.656 48.248ZM27.44 47.784H40.608V49H27.44V47.784ZM26.944 42.808H41.024V44.024H26.944V42.808ZM33.248 43.144H34.512V46.872C34.512 50.248 33.792 54.104 27.376 56.328C27.248 56.024 26.896 55.512 26.64 55.272C32.624 53.24 33.248 49.8 33.248 46.872V43.144ZM43.664 43.368H56.4V44.616H43.664V43.368ZM42.816 53.864H57.2V55.064H42.816V53.864ZM49.28 43.992H50.624V54.36H49.28V43.992Z" fill="#333333"/>
</svg>
